<svg id="Layer_1" data-name="Layer 1" xmlns="http://www.w3.org/2000/svg" viewBox="0 0 251.71 365.23"><defs><style>.cls-1,.cls-2{stroke:#000;stroke-miterlimit:10;stroke-width:6px;fill:none}</style></defs><title>smithdev-logo</title><path d="M436.94 377.86c-.91-.3-.55-1.73-1.44-2-16.84-5.62-31.61-10.15-41.76-15.84q-23.07-12.94-33.81-30t-10.74-41.5q0-38.82 32.71-62.87t85.2-24q34.18 0 61.4 13.31t42.11 37.35q14.89 24 14.89 54.32h-13.17q0-39.79-29.3-65.8t-75.93-26q-46.87 0-75.81 20.87T362.37 288q0 32 25.15 51.51c11.65 9.05 30.79 15.92 53 23.52.92.32-.36 2.09.58 2.4m61.39 16.09s38.7 17 52.77 27.33q34.16 25.15 34.16 67.35 0 26.86-15.14 47.49t-43 31.86q-27.83 11.23-62.5 11.23-38.58 0-69.34-12.82t-46.26-36.5q-15.51-23.68-15.5-55.91h13.22q0 43.71 32.71 67.87t85.2 24.17q46.63 0 76.9-21.36T576 476.69q0-22.71-10.62-38.45t-33.45-27.83c-10.45-5.53-15-9.29-32.72-15" transform="translate(-337.71 -201.54)"/><path class="cls-1" d="M109.51 131.8l49.73 53.72-71.39 16.21 21.66-69.93z"/><path class="cls-2" d="M175.54 146.13l-24.92 80.45"/><circle class="cls-2" cx="129.64" cy="176.31" r="55.65"/></svg>